<?xml version="1.0" encoding="UTF-8"?>
<svg xmlns="http://www.w3.org/2000/svg" viewBox="0 0 100 400" fill="none">
  <!-- Hamster Logo (Transparent White) -->
  <g id="hamster-logo" transform="translate(25, 25)">
    <circle cx="25" cy="25" r="20" fill="white" opacity="0.8" stroke="white" stroke-width="1"/>
    <circle cx="20" cy="20" r="2" fill="black"/>
    <circle cx="30" cy="20" r="2" fill="black"/>
    <path d="M18 28 Q25 32 32 28" stroke="black" stroke-width="1.5" fill="none"/>
    <circle cx="15" cy="15" r="3" fill="white" opacity="0.6"/>
    <circle cx="35" cy="15" r="3" fill="white" opacity="0.6"/>
  </g>
  
  <!-- Rvanka Icon -->
  <g id="rvanka-icon" transform="translate(25, 125)">
    <path d="M25 5L5 15v20c0 11 8 19 20 22 12-3 20-11 20-22V15L25 5z" fill="white" opacity="0.8" stroke="white"/>
    <path d="M18 25l4 4 8-8" stroke="red" stroke-width="2" fill="none"/>
    <circle cx="25" cy="25" r="3" fill="red" opacity="0.7"/>
  </g>
  
  <!-- Info Icon -->
  <g id="info-icon" transform="translate(25, 225)">
    <circle cx="25" cy="25" r="20" fill="white" opacity="0.8" stroke="white"/>
    <path d="M25 35v-8" stroke="blue" stroke-width="2"/>
    <circle cx="25" cy="18" r="2" fill="blue"/>
  </g>
  
  <!-- Tools Icon -->
  <g id="tools-icon" transform="translate(25, 325)">
    <path d="M35 15a2 2 0 0 0 0 2.8l3.2 3.2a2 2 0 0 0 2.8 0l7.54-7.54a12 12 0 0 1-15.88 15.88L19.82 42.18a4.24 4.24 0 0 1-6-6L26.64 23.36a12 12 0 0 1 15.88-15.88L35 15z" fill="white" opacity="0.8" stroke="white"/>
    <circle cx="15" cy="35" r="3" fill="gray" opacity="0.7"/>
  </g>
</svg>